<?xml version="1.0" standalone="no"?>
<!DOCTYPE svg PUBLIC "-//W3C//DTD SVG 20010904//EN"
 "http://www.w3.org/TR/2001/REC-SVG-20010904/DTD/svg10.dtd">
<svg version="1.0" xmlns="http://www.w3.org/2000/svg"
 width="669.000000pt" height="297.000000pt" viewBox="0 0 669.000000 297.000000"
 preserveAspectRatio="xMidYMid meet">

<g transform="translate(0.000000,297.000000) scale(0.100000,-0.100000)"
fill="#000000" stroke="none">
<path d="M0 1655 l0 -1315 90 0 90 0 0 -65 0 -65 120 0 120 0 0 -105 0 -105
3135 0 3135 0 0 1315 0 1315 -120 0 -120 0 0 105 0 105 -90 0 -90 0 0 65 0 65
-2725 0 -2725 0 -15 -24 c-11 -16 -22 -22 -35 -19 -11 3 -20 9 -20 14 0 5 6 6
13 3 7 -2 21 2 32 10 18 14 -24 15 -387 15 l-408 0 0 -1314z m203 1266 c4 10
6 9 6 -3 1 -20 0 -21 -23 -12 -9 3 -13 11 -10 18 3 6 -2 2 -10 -8 -14 -18 -16
-18 -16 -2 0 9 6 23 13 31 10 11 14 9 23 -12 8 -18 13 -22 17 -12z m477 29 c0
-5 -2 -10 -4 -10 -3 0 -8 5 -11 10 -3 6 -1 10 4 10 6 0 11 -4 11 -10z m-370
-35 c-6 -8 -5 -16 3 -25 10 -12 9 -12 -6 -1 -12 10 -14 17 -7 26 6 8 5 16 -3
25 -10 12 -9 12 6 1 12 -10 14 -17 7 -26z m322 23 c-7 -7 -12 -23 -12 -36 0
-13 -4 -20 -10 -17 -6 4 -8 10 -5 15 3 4 -2 10 -10 14 -8 3 -15 0 -15 -6 0 -6
-2 -9 -5 -6 -3 3 -2 13 1 22 5 14 9 15 16 4 7 -10 10 -10 19 5 5 9 15 17 21
17 9 0 9 -3 0 -12z m-547 -8 c3 -5 1 -10 -4 -10 -6 0 -11 5 -11 10 0 6 2 10 4
10 3 0 8 -4 11 -10z m298 -22 c-2 -5 4 -8 13 -8 10 0 15 -3 11 -6 -12 -12 -47
8 -47 27 0 16 2 18 14 7 8 -7 12 -16 9 -20z m347 15 c0 -22 -11 -37 -27 -40
-18 -4 -16 16 1 23 8 3 12 12 9 20 -3 8 0 14 6 14 6 0 11 -8 11 -17z m-377
-22 c3 -13 1 -18 -8 -14 -8 2 -13 13 -12 23 1 23 13 17 20 -9z m77 19 c0 -5
-8 -10 -17 -10 -15 0 -16 2 -3 10 19 12 20 12 20 0z m48 -9 c-14 -22 -37 -23
-31 -1 2 9 13 16 23 17 16 1 17 -1 8 -16z m-238 -1 c0 -5 -2 -10 -4 -10 -3 0
-8 5 -11 10 -3 6 -1 10 4 10 6 0 11 -4 11 -10z m534 1 c3 -5 -3 -11 -15 -14
-16 -4 -18 -3 -8 9 13 16 16 17 23 5z m33 -33 c-3 -8 -6 -5 -6 6 -1 11 2 17 5
13 3 -3 4 -12 1 -19z m-444 -91 c-2 -4 -9 -5 -14 -2 -5 4 -9 1 -9 -6 0 -7 -3
-9 -7 -6 -3 4 0 19 7 33 13 23 15 24 21 7 4 -10 4 -21 2 -26z m411 7 c3 -8 2
-12 -4 -9 -6 3 -10 1 -10 -6 0 -7 -2 -10 -5 -7 -5 5 4 38 10 38 2 0 6 -7 9
-16z m133 -18 c-4 -9 -14 -16 -24 -16 -16 1 -16 2 -2 13 9 7 14 19 11 27 -3
12 -2 12 8 3 7 -6 10 -19 7 -27z m-415 12 c-9 -9 -9 -15 1 -27 11 -14 10 -14
-6 -2 -13 10 -15 17 -6 27 6 8 14 14 17 14 3 0 1 -5 -6 -12z m118 2 c0 -5 -5
-10 -11 -10 -5 0 -7 5 -4 10 3 6 8 10 11 10 2 0 4 -4 4 -10z m43 -16 c-6 -17
-23 -9 -23 11 0 8 6 12 14 9 8 -3 12 -12 9 -20z m-263 6 c0 -5 -5 -10 -11 -10
-5 0 -7 5 -4 10 3 6 8 10 11 10 2 0 4 -4 4 -10z m132 -12 c-7 -7 -12 -8 -12
-2 0 14 12 26 19 19 2 -3 -1 -11 -7 -17z m45 7 c0 -11 -4 -12 -14 -4 -7 6 -13
13 -13 15 0 2 6 4 13 4 8 0 14 -7 14 -15z m388 5 c3 -5 1 -10 -4 -10 -6 0 -11
5 -11 10 0 6 2 10 4 10 3 0 8 -4 11 -10z m-407 -177 c-12 -3 -19 -15 -19 -36
l-2 -32 -4 30 c-3 16 -10 33 -16 37 -7 4 4 7 23 7 19 -1 27 -3 18 -6z m69 -29
c-1 -30 -3 -33 -13 -20 -15 21 -21 20 -27 -1 -3 -10 -5 -1 -6 20 -1 33 2 37
23 37 21 0 24 -4 23 -36z m63 6 c7 -17 10 -33 6 -37 -3 -3 -6 -1 -6 5 0 7 -9
12 -20 12 -11 0 -20 -5 -20 -12 0 -6 -3 -8 -6 -5 -8 8 15 67 26 67 4 0 13 -14
20 -30z m52 8 l12 -23 7 25 c6 21 7 18 7 -15 1 -39 1 -40 -15 -17 -17 25 -35
30 -27 7 4 -8 1 -15 -5 -15 -6 0 -11 14 -11 30 0 36 14 39 32 8z m81 15 c-29
-6 -30 -19 -2 -26 28 -7 19 -31 -12 -34 -14 -1 -17 0 -6 3 21 7 22 20 2 28
-27 10 -18 36 13 35 23 -2 24 -2 5 -6z m76 -24 c14 -41 14 -44 -4 -29 -8 7
-22 10 -30 6 -18 -6 -18 -5 -5 28 13 35 26 33 39 -5z m159 -6 c-1 -37 -1 -37
-5 -5 -3 23 -9 32 -22 32 -14 0 -17 -6 -13 -25 2 -15 0 -25 -7 -25 -6 0 -11
12 -11 26 0 23 -3 25 -32 22 -41 -4 -50 -33 -16 -48 l23 -10 -25 3 c-25 2 -37
25 -26 53 4 10 23 14 71 14 l65 0 -2 -37z m77 17 c8 -27 -12 -52 -39 -48 -21
3 -32 28 -22 54 8 22 54 18 61 -6z m68 2 c3 15 5 9 6 -16 l1 -39 -24 22 -24
23 -5 -24 c-3 -15 -5 -9 -6 16 l-1 39 24 -22 24 -23 5 24z m47 8 l-25 -8 23
-7 c32 -10 30 -45 -3 -45 -14 0 -25 4 -25 9 0 5 9 7 20 4 11 -3 20 -1 20 5 0
5 -9 12 -20 15 -31 8 -25 37 8 36 l27 -1 -25 -8z m2400 -138 c0 -5 -7 -9 -15
-9 -8 0 -12 4 -9 9 3 4 9 8 15 8 5 0 9 -4 9 -8z m48 -23 c2 -18 1 -21 -7 -9
-5 8 -8 17 -5 21 2 4 -1 10 -6 12 -6 3 -5 4 2 3 7 -1 14 -13 16 -27z m89 0 c2
-19 1 -21 -7 -9 -9 13 -11 13 -20 0 -9 -13 -9 0 -1 38 1 2 6 2 13 0 6 -2 13
-15 15 -29z m-107 -10 c0 -6 -4 -7 -10 -4 -5 3 -10 11 -10 16 0 6 5 7 10 4 6
-3 10 -11 10 -16z m-3113 -11 c-3 -8 -6 -5 -6 6 -1 11 2 17 5 13 3 -3 4 -12 1
-19z m44 -1 c-10 -9 -11 -8 -5 6 3 10 9 15 12 12 3 -3 0 -11 -7 -18z m276 1
c-3 -8 -6 -5 -6 6 -1 11 2 17 5 13 3 -3 4 -12 1 -19z m50 0 c-3 -8 -6 -5 -6 6
-1 11 2 17 5 13 3 -3 4 -12 1 -19z m360 0 c-3 -8 -6 -5 -6 6 -1 11 2 17 5 13
3 -3 4 -12 1 -19z m2583 12 c0 -13 -11 -13 -30 0 -12 8 -11 10 8 10 12 0 22
-4 22 -10z m-3691 -192 c-1 -46 -4 -74 -6 -64 -4 15 -7 16 -15 5 -6 -10 -8 -3
-6 23 2 20 0 34 -4 32 -4 -3 -8 -1 -8 5 0 5 5 13 11 17 8 4 7 9 -2 15 -9 5 -9
9 -3 9 7 0 14 9 17 20 11 42 17 17 16 -62z m1768 16 c-3 -3 -12 -4 -19 -1 -8
3 -5 6 6 6 11 1 17 -2 13 -5z m229 -24 c0 -9 -7 -16 -16 -16 -9 0 -16 7 -16
16 0 9 7 16 16 16 9 0 16 -7 16 -16z m2797 0 c-3 -11 -7 -20 -9 -20 -2 0 -4 9
-4 20 0 11 4 20 9 20 5 0 7 -9 4 -20z m-4355 3 c12 10 14 9 10 -3 -2 -8 -13
-15 -23 -15 -10 0 -20 7 -23 15 -4 12 -2 13 9 3 10 -10 16 -10 27 0z m4229
-25 c-3 -7 -5 -2 -5 12 0 14 2 19 5 13 2 -7 2 -19 0 -25z m-1410 0 c-3 -8 -6
-5 -6 6 -1 11 2 17 5 13 3 -3 4 -12 1 -19z m180 -10 c-3 -7 -5 -2 -5 12 0 14
2 19 5 13 2 -7 2 -19 0 -25z m150 10 c-3 -8 -6 -5 -6 6 -1 11 2 17 5 13 3 -3
4 -12 1 -19z m750 0 c-3 -8 -6 -5 -6 6 -1 11 2 17 5 13 3 -3 4 -12 1 -19z
m-4106 -7 c-9 -6 -10 -11 -2 -15 17 -11 13 -20 -15 -33 -42 -20 -72 5 -42 35
17 17 28 15 21 -5 -4 -12 0 -11 11 5 10 12 23 22 29 22 8 0 8 -3 -2 -9z m5016
-13 c-3 -8 -6 -5 -6 6 -1 11 2 17 5 13 3 -3 4 -12 1 -19z m-3480 -4 c-3 -3
-12 -4 -19 -1 -8 3 -5 6 6 6 11 1 17 -2 13 -5z m1673 -64 c0 -5 -5 -10 -11
-10 -5 0 -7 5 -4 10 3 6 8 10 11 10 2 0 4 -4 4 -10z m-43 -22 c-3 -8 -6 -5 -6
6 -1 11 2 17 5 13 3 -3 4 -12 1 -19z m-3161 -31 c4 -12 -1 -24 -13 -32 -13
-11 -14 -14 -4 -15 8 0 12 -2 9 -5 -9 -9 -58 20 -58 35 0 13 -1 13 -10 0 -8
-12 -10 -11 -10 7 0 24 13 32 53 30 17 -1 29 -8 33 -20z m-236 -89 c0 -80 0
-81 -20 -63 -11 10 -20 23 -20 28 0 6 7 2 15 -9 14 -18 15 -17 13 14 -1 17 -6
32 -11 32 -4 0 -5 5 -2 10 4 6 1 18 -6 26 -10 12 -9 13 5 8 14 -6 16 -2 10 21
-5 20 -4 26 5 21 7 -4 11 -38 11 -88z m990 -73 l0 -95 -305 0 -305 0 0 90 0
90 303 3 c166 1 303 3 305 5 1 1 2 -41 2 -93z m-810 13 c6 -16 9 -18 9 -7 1
22 27 31 40 15 9 -10 7 -15 -6 -20 -10 -3 -27 -10 -38 -15 -17 -7 -20 -5 -22
20 -3 35 4 37 17 7z m1788 -16 c-8 -9 -14 -9 -24 -1 -18 15 -18 14 10 14 18 0
22 -3 14 -13z m2520 -19 c0 -28 -2 -33 -8 -18 -6 17 -3 55 5 55 2 0 3 -17 3
-37z m-1354 12 c3 -8 1 -15 -4 -15 -6 0 -10 7 -10 15 0 8 2 15 4 15 2 0 6 -7
10 -15z m56 -6 c0 -11 -4 -18 -9 -15 -5 4 -12 0 -14 -6 -3 -7 -6 -1 -6 15 -1
18 4 27 14 27 8 0 15 -9 15 -21z m179 -24 c0 -5 -4 -2 -10 8 -5 9 -18 17 -29
17 -10 0 -21 -8 -23 -17 -4 -14 -5 -13 -6 4 -1 15 6 23 22 25 21 3 46 -17 46
-37z m83 20 c-2 -14 -6 -25 -7 -25 -1 0 -5 11 -7 25 -3 16 -1 25 7 25 8 0 10
-9 7 -25z m278 4 c0 -11 -4 -18 -9 -15 -5 4 -12 0 -14 -6 -3 -7 -6 -1 -6 15
-1 18 4 27 14 27 8 0 15 -9 15 -21z m135 12 c3 -5 0 -13 -6 -17 -7 -4 -9 -3
-5 4 3 5 0 13 -6 15 -9 4 -10 6 -1 6 6 1 14 -3 18 -8z m211 0 c-4 -5 -2 -11 3
-13 5 -1 3 -9 -5 -16 -12 -11 -14 -9 -14 13 0 14 5 25 11 25 5 0 8 -4 5 -9z
m58 1 c3 -5 -4 -16 -14 -25 -19 -16 -20 -16 -16 6 3 12 5 23 5 25 2 5 20 1 25
-6z m28 -19 c-3 -16 -7 -22 -10 -15 -4 13 4 42 11 42 2 0 2 -12 -1 -27z m131
-3 c-7 -28 -13 -25 -13 6 0 14 4 23 9 20 5 -3 7 -15 4 -26z m23 -18 c-11 -10
-15 4 -8 28 l7 25 3 -23 c2 -13 1 -26 -2 -30z m30 39 c-4 -5 -2 -11 3 -13 5
-1 3 -9 -5 -16 -12 -11 -14 -9 -14 13 0 14 5 25 11 25 5 0 8 -4 5 -9z m61 3
c-3 -3 -12 -4 -19 -1 -8 3 -5 6 6 6 11 1 17 -2 13 -5z m-137 -8 c0 -3 -4 -8
-10 -11 -5 -3 -10 -1 -10 4 0 6 5 11 10 11 6 0 10 -2 10 -4z m-320 -36 c0 -5
-4 -10 -10 -10 -5 0 -10 5 -10 10 0 6 5 10 10 10 6 0 10 -4 10 -10z m-673 -16
c-3 -3 -12 -4 -19 -1 -8 3 -5 6 6 6 11 1 17 -2 13 -5z m946 -1 c-7 -2 -19 -2
-25 0 -7 3 -2 5 12 5 14 0 19 -2 13 -5z m-3983 -42 c0 -22 -5 -30 -24 -33 -34
-7 -54 7 -49 34 3 18 12 24 39 25 31 3 34 1 34 -26z m-86 4 c3 -8 1 -15 -4
-15 -6 0 -10 7 -10 15 0 8 2 15 4 15 2 0 6 -7 10 -15z m-156 -72 c-2 -43 -7
-78 -12 -78 -14 0 -16 36 -4 58 9 17 8 19 -7 13 -15 -5 -16 -4 -6 8 10 12 9
20 -4 39 -17 26 -14 30 28 36 4 0 7 -34 5 -76z m992 -78 l0 -95 -305 0 -305 0
0 88 c0 49 3 92 7 95 3 4 141 7 305 7 l298 0 0 -95z m-775 55 c-3 -6 1 -13 9
-16 13 -5 16 -23 16 -85 l0 -79 -35 0 c-19 0 -38 -1 -42 -2 -15 -6 -11 44 5
60 9 10 28 31 42 46 l25 28 -46 -7 c-33 -5 -49 -3 -54 6 -5 7 -4 10 2 6 5 -4
20 3 31 14 12 11 22 15 22 9 0 -5 5 -10 11 -10 6 0 9 6 6 14 -3 8 -3 17 0 20
10 10 15 7 8 -4z m862 -82 c-2 -13 -4 -3 -4 22 0 25 2 35 4 23 2 -13 2 -33 0
-45z m2159 35 c1 -14 -3 -20 -12 -16 -8 3 -14 9 -14 15 0 5 5 6 10 3 6 -3 10
-2 10 4 0 5 -5 12 -10 14 -6 3 -5 4 2 3 7 -1 13 -12 14 -23z m381 -10 c-3 -10
-5 -4 -5 12 0 17 2 24 5 18 2 -7 2 -21 0 -30z m198 7 c0 -30 -10 -40 -18 -17
-5 15 3 47 12 47 3 0 6 -13 6 -30z m-1847 -8 c-8 -9 -14 -9 -24 -1 -19 16 -18
17 10 15 18 -1 22 -4 14 -14z m1306 -15 c7 -6 6 -7 -4 -4 -8 2 -16 12 -17 23
-2 13 -1 15 4 4 3 -8 11 -19 17 -23z m92 -5 c-4 -3 -12 0 -19 8 -9 10 -9 11 1
6 7 -5 12 -1 13 11 1 17 2 17 6 0 3 -10 2 -21 -1 -25z m141 13 c-4 -8 -12 -15
-19 -14 -10 0 -10 2 0 6 6 2 12 12 12 21 0 8 3 13 6 9 4 -3 4 -13 1 -22z m20
3 c-3 -8 -6 -5 -6 6 -1 11 2 17 5 13 3 -3 4 -12 1 -19z m67 -9 c-3 -5 -11 -9
-17 -9 -7 0 -6 4 3 10 10 6 11 10 3 10 -7 0 -13 5 -13 11 0 8 5 8 15 -1 8 -7
12 -16 9 -21z m83 -1 c-3 -7 -5 -2 -5 12 0 14 2 19 5 13 2 -7 2 -19 0 -25z
m36 12 c3 -11 1 -23 -4 -26 -5 -3 -9 6 -9 20 0 31 6 34 13 6z m-2123 -5 c0 -8
-9 -15 -21 -15 -11 0 -17 5 -14 10 4 6 11 8 16 5 5 -4 9 -1 9 4 0 6 2 11 5 11
3 0 5 -7 5 -15z m1865 -5 c3 -5 1 -10 -4 -10 -6 0 -11 5 -11 10 0 6 2 10 4 10
3 0 8 -4 11 -10z m-3275 -10 c0 -5 -5 -10 -11 -10 -5 0 -7 5 -4 10 3 6 8 10
11 10 2 0 4 -4 4 -10z m3227 -102 c-2 -13 -4 -5 -4 17 -1 22 1 32 4 23 2 -10
2 -28 0 -40z m40 0 c-2 -13 -4 -5 -4 17 -1 22 1 32 4 23 2 -10 2 -28 0 -40z
m184 20 c-3 -21 -6 -26 -9 -15 -3 17 3 47 11 47 2 0 1 -15 -2 -32z m-3632 -60
c-1 -52 -3 -66 -9 -48 l-8 25 -3 -25 c-1 -16 -4 -8 -8 20 -4 26 -2 51 4 59 7
10 6 16 -4 19 -11 4 -11 6 0 13 26 16 29 9 28 -63z m3578 58 c-3 -8 -1 -17 6
-20 9 -3 9 -5 0 -5 -15 -1 -26 16 -18 29 9 15 18 12 12 -4z m90 0 c-4 -9 1
-17 11 -19 16 -4 16 -5 0 -6 -19 -1 -32 14 -23 29 9 15 18 12 12 -4z m96 -6
c-3 -11 -7 -20 -9 -20 -2 0 -4 9 -4 20 0 11 4 20 9 20 5 0 7 -9 4 -20z m104
-12 c-3 -8 -6 -5 -6 6 -1 11 2 17 5 13 3 -3 4 -12 1 -19z m43 -6 c0 -12 -3
-12 -15 -2 -8 7 -15 13 -15 15 0 1 7 2 15 2 8 0 15 -7 15 -15z m40 4 c0 -3 -4
-8 -10 -11 -5 -3 -10 -1 -10 4 0 6 5 11 10 11 6 0 10 -2 10 -4z m-2960 -121
l0 -95 -305 0 -305 0 0 88 c0 49 3 92 7 95 3 4 141 7 305 7 l298 0 0 -95z
m-770 45 c-12 -8 -12 -10 4 -16 14 -5 15 -9 4 -15 -10 -7 -10 -9 0 -9 16 0 16
-112 0 -128 -15 -15 -42 -16 -32 -1 4 7 -2 9 -17 7 -21 -3 -24 1 -25 29 -1 29
1 31 18 22 11 -6 24 -8 31 -5 7 2 4 5 -5 5 -23 1 -23 20 -1 28 14 6 12 9 -12
19 -17 7 -24 13 -17 14 7 0 11 4 7 10 -3 5 -13 7 -23 4 -9 -2 -3 2 15 11 17 8
34 19 38 25 3 5 12 10 18 10 7 0 6 -4 -3 -10z m1748 -48 c-8 -9 -14 -9 -24 -1
-19 16 -18 17 10 15 18 -1 22 -4 14 -14z m1542 -37 c-6 -7 -20 -11 -30 -8 -14
4 -20 0 -20 -11 0 -10 -4 -14 -10 -11 -18 11 -10 34 18 48 31 16 60 3 42 -18z
m-1184 16 c-3 -5 1 -11 9 -15 8 -3 15 -10 15 -16 0 -5 -9 -2 -19 7 -17 14 -20
33 -5 33 3 0 3 -4 0 -9z m217 -6 c-3 -9 -8 -14 -10 -11 -3 3 -2 9 2 15 9 16
15 13 8 -4z m34 -7 c-3 -8 -6 -5 -6 6 -1 11 2 17 5 13 3 -3 4 -12 1 -19z m93
2 c0 -5 -9 -6 -20 -3 -11 3 -17 9 -15 14 7 10 35 1 35 -11z m261 0 c6 0 7 5 4
10 -3 6 -2 10 3 10 6 0 9 -11 8 -24 -1 -17 -4 -21 -13 -15 -7 7 -13 5 -16 -3
-3 -7 -5 1 -5 17 0 17 2 24 5 18 2 -7 9 -13 14 -13z m81 -5 c3 -14 1 -25 -3
-25 -5 0 -9 11 -9 25 0 14 2 25 4 25 2 0 6 -11 8 -25z m277 -13 c-1 -16 -2
-16 -6 1 -2 9 -8 17 -13 17 -5 0 -11 -8 -13 -17 -3 -11 -5 -7 -6 10 -1 25 1
27 19 17 11 -6 19 -18 19 -28z m521 28 c0 -5 -5 -10 -11 -10 -5 0 -7 5 -4 10
3 6 8 10 11 10 2 0 4 -4 4 -10z m-1437 -20 c-3 -11 -7 -20 -9 -20 -2 0 -4 9
-4 20 0 11 4 20 9 20 5 0 7 -9 4 -20z m140 0 c-3 -11 -7 -20 -9 -20 -2 0 -4 9
-4 20 0 11 4 20 9 20 5 0 7 -9 4 -20z m90 0 c-3 -12 -8 -19 -11 -16 -5 6 5 36
12 36 2 0 2 -9 -1 -20z m217 16 c0 -2 -7 -7 -16 -10 -8 -3 -12 -2 -9 4 6 10
25 14 25 6z m50 -19 c0 -8 -3 -7 -9 2 -7 11 -11 10 -20 -5 -6 -11 -11 -14 -11
-8 0 14 22 34 32 28 4 -3 8 -11 8 -17z m116 11 c4 -7 3 -8 -4 -4 -7 4 -12 0
-12 -10 0 -10 -3 -15 -6 -11 -7 6 2 37 10 37 3 0 8 -5 12 -12z m72 -19 c-3 -8
-7 -3 -11 10 -4 17 -3 21 5 13 5 -5 8 -16 6 -23z m28 11 c0 -11 -4 -20 -8 -20
-4 0 -8 9 -8 20 0 11 4 20 8 20 4 0 8 -9 8 -20z m70 9 c3 -6 1 -16 -5 -22 -9
-9 -11 -8 -6 6 4 10 2 17 -4 17 -6 0 -11 -7 -11 -17 0 -9 -3 -14 -6 -10 -9 8
3 37 15 37 5 0 13 -5 17 -11z m40 -13 c2 -13 1 -13 -3 -1 -2 8 -9 13 -14 10
-5 -4 -9 -1 -9 5 0 18 25 5 26 -14z m34 14 c-10 -6 -11 -10 -2 -10 6 0 12 -5
12 -11 0 -8 -5 -8 -15 1 -16 13 -11 30 8 30 7 0 6 -4 -3 -10z m126 -1 c3 -6 1
-16 -5 -22 -9 -9 -11 -8 -6 6 4 9 3 17 -3 17 -6 0 -13 -12 -15 -27 -4 -26 -4
-26 -6 5 -1 32 20 45 35 21z m407 -9 c-3 -12 -8 -19 -11 -16 -5 6 5 36 12 36
2 0 2 -9 -1 -20z m83 8 c4 -7 3 -8 -4 -4 -7 4 -12 0 -12 -10 0 -10 -3 -15 -6
-11 -7 6 2 37 10 37 3 0 8 -5 12 -12z m57 -8 c-3 -12 -8 -19 -11 -16 -5 6 5
36 12 36 2 0 2 -9 -1 -20z m65 -11 c-3 -8 -7 -3 -11 10 -4 17 -3 21 5 13 5 -5
8 -16 6 -23z m78 19 c4 -7 3 -8 -4 -4 -7 4 -12 1 -12 -9 0 -9 -5 -13 -10 -10
-8 5 -7 11 1 21 14 17 16 17 25 2z m21 -20 c-3 -7 -5 -2 -5 12 0 14 2 19 5 13
2 -7 2 -19 0 -25z m164 15 c13 -16 12 -17 -3 -4 -15 11 -21 11 -35 0 -16 -13
-17 -12 -4 4 7 9 17 17 21 17 4 0 14 -8 21 -17z m104 7 c5 -8 12 -7 23 1 14
11 14 10 0 -6 -17 -18 -19 -18 -35 -2 -10 10 -12 17 -6 17 7 0 15 -5 18 -10z
m-1228 -22 c-3 -8 -6 -5 -6 6 -1 11 2 17 5 13 3 -3 4 -12 1 -19z m200 0 c-3
-8 -6 -5 -6 6 -1 11 2 17 5 13 3 -3 4 -12 1 -19z m420 0 c-3 -8 -6 -5 -6 6 -1
11 2 17 5 13 3 -3 4 -12 1 -19z m140 0 c-3 -8 -6 -5 -6 6 -1 11 2 17 5 13 3
-3 4 -12 1 -19z m70 0 c-3 -8 -6 -5 -6 6 -1 11 2 17 5 13 3 -3 4 -12 1 -19z
m-3937 -120 c0 -37 -4 -70 -10 -73 -6 -4 -8 13 -5 45 2 29 0 50 -6 50 -6 0 -7
5 -4 10 4 6 2 16 -4 23 -7 9 -5 13 10 13 17 0 19 -8 19 -68z m990 -73 l0 -95
-305 0 -305 0 0 95 0 95 305 0 305 0 0 -95z m-1016 50 c3 -8 1 -15 -4 -15 -6
0 -10 7 -10 15 0 8 2 15 4 15 2 0 6 -7 10 -15z m256 -15 c11 -7 9 -11 -13 -19
-16 -6 -32 -11 -37 -11 -5 0 -10 -5 -12 -11 -2 -7 -9 -5 -17 5 -12 14 -12 16
3 10 10 -4 18 0 22 11 4 9 13 14 21 11 8 -3 11 -1 8 4 -8 12 5 13 25 0z m2233
-42 c-2 -4 -14 3 -26 15 -13 12 -22 25 -20 29 2 4 14 -3 26 -15 13 -12 22 -25
20 -29z m1618 39 c-12 -15 -5 -27 17 -27 9 0 13 7 9 20 -3 11 -2 18 3 15 4 -3
10 -15 12 -28 4 -21 1 -23 -21 -19 -14 3 -29 10 -33 15 -8 13 1 37 14 37 7 0
6 -5 -1 -13z m-1785 -9 c-3 -22 -17 -39 -27 -33 -16 11 -10 25 9 18 14 -5 13
-3 -3 10 -20 16 -20 16 2 17 12 0 20 -6 19 -12z m-324 -12 c10 5 10 4 1 -6
-13 -14 -43 -7 -43 11 0 8 4 8 15 -1 8 -6 20 -8 27 -4z m-1748 -21 c-16 -13
-16 -14 -1 -9 15 5 17 -1 17 -56 0 -53 -2 -61 -16 -56 -9 4 -24 1 -32 -6 -13
-11 -14 -11 -8 0 6 9 3 12 -10 10 -13 -2 -18 2 -15 12 3 8 5 27 6 43 2 30 15
51 15 24 0 -10 8 -17 18 -17 13 0 14 2 4 9 -18 11 -5 59 16 64 25 5 28 -2 6
-18z m2197 8 c13 -16 12 -17 -3 -4 -10 7 -18 15 -18 17 0 8 8 3 21 -13z m596
-15 c-3 -7 -5 -2 -5 12 0 14 2 19 5 13 2 -7 2 -19 0 -25z m360 0 c-3 -7 -5 -2
-5 12 0 14 2 19 5 13 2 -7 2 -19 0 -25z m-772 4 c-3 -3 -11 0 -18 7 -9 10 -8
11 6 5 10 -3 15 -9 12 -12z m682 -4 c-3 -8 -6 -5 -6 6 -1 11 2 17 5 13 3 -3 4
-12 1 -19z m380 0 c-3 -8 -6 -5 -6 6 -1 11 2 17 5 13 3 -3 4 -12 1 -19z
m-3513 -63 c3 -8 1 -15 -4 -15 -6 0 -10 7 -10 15 0 8 2 15 4 15 2 0 6 -7 10
-15z m-154 -85 c0 -72 -3 -90 -15 -90 -9 0 -12 6 -8 17 5 12 3 14 -8 8 -11 -6
-11 -5 -2 5 6 7 9 19 6 28 -4 8 -2 13 3 9 5 -3 10 3 10 14 0 13 -5 18 -15 14
-11 -4 -11 -3 -2 9 10 12 9 20 -5 41 -15 23 -15 25 0 19 9 -3 16 -1 16 5 0 6
5 11 10 11 6 0 10 -37 10 -90z m2533 63 c-7 -2 -21 -2 -30 0 -10 3 -4 5 12 5
17 0 24 -2 18 -5z m198 -2 c7 11 9 10 9 -3 0 -10 -7 -18 -15 -18 -8 0 -15 8
-14 18 0 12 2 13 6 3 5 -11 7 -11 14 0z m59 -12 c0 -5 -8 -9 -17 -8 -11 0 -13
3 -5 6 6 2 9 10 6 15 -4 7 -2 8 4 4 7 -4 12 -11 12 -17z m90 0 c0 -5 -7 -9
-15 -9 -9 0 -12 6 -9 15 6 15 24 11 24 -6z m785 2 c-3 -6 -11 -11 -16 -11 -5
0 -4 6 3 14 14 16 24 13 13 -3z m45 -17 c0 -3 -7 -1 -15 6 -8 7 -15 17 -15 22
0 5 7 3 15 -6 8 -8 15 -18 15 -22z m237 14 c-3 -8 -6 -5 -6 6 -1 11 2 17 5 13
3 -3 4 -12 1 -19z m20 0 c-3 -8 -6 -5 -6 6 -1 11 2 17 5 13 3 -3 4 -12 1 -19z
m42 -7 c-6 -2 -16 2 -22 9 -9 10 -9 11 1 6 7 -4 12 -2 12 6 0 9 3 9 10 -2 6
-10 6 -16 -1 -19z m761 9 c0 -5 -2 -10 -4 -10 -3 0 -8 5 -11 10 -3 6 -1 10 4
10 6 0 11 -4 11 -10z m-3780 -135 l0 -95 -302 2 -303 3 -3 93 -3 92 306 0 305
0 0 -95z m2003 25 c-7 -28 -13 -25 -13 6 0 14 4 23 9 20 5 -3 7 -15 4 -26z
m44 8 c-3 -8 -6 -5 -6 6 -1 11 2 17 5 13 3 -3 4 -12 1 -19z m-2809 3 c6 0 12
-11 12 -24 0 -20 -4 -23 -33 -19 -18 2 -44 12 -57 23 -15 12 -18 17 -7 13 9
-3 17 -1 17 4 0 6 12 9 28 8 15 -2 33 -4 40 -5z m2299 -23 c-3 -8 -6 -5 -6 6
-1 11 2 17 5 13 3 -3 4 -12 1 -19z m-560 3 c9 8 13 8 13 1 0 -20 -22 -25 -36
-8 -8 9 -9 12 -2 6 7 -6 16 -6 25 1z m-1729 -116 c-3 -27 -7 -30 -42 -33 -46
-4 -65 10 -46 33 7 8 9 15 4 16 -23 2 34 17 59 16 25 -1 28 -5 25 -32z m-238
-65 c0 -73 -3 -90 -15 -90 -11 0 -12 5 -5 26 13 33 12 68 0 37 -5 -13 -11 -23
-12 -23 -7 0 0 89 7 101 5 8 3 15 -4 17 -11 4 -11 6 0 13 26 16 29 9 29 -81z
m990 -82 l0 -93 -305 3 -305 3 0 89 0 90 305 0 305 0 0 -92z m-759 42 c5 0 9
-15 9 -32 0 -23 -3 -29 -9 -19 -5 8 -16 11 -31 6 -15 -5 -27 -1 -41 13 -18 20
-18 21 9 30 15 6 33 9 40 6 8 -2 18 -4 23 -4z m2681 -35 c3 -16 1 -25 -7 -25
-8 0 -10 9 -7 25 2 14 6 25 7 25 1 0 5 -11 7 -25z m153 0 c0 -14 -3 -25 -7
-25 -10 0 -10 34 -1 43 3 4 7 7 7 7 1 0 1 -11 1 -25z m-1098 6 c9 8 13 8 13 1
0 -20 -22 -25 -36 -8 -8 9 -9 12 -2 6 7 -6 16 -6 25 1z m760 -28 c-3 -10 -5
-4 -5 12 0 17 2 24 5 18 2 -7 2 -21 0 -30z m950 15 c-3 -8 -6 -5 -6 6 -1 11 2
17 5 13 3 -3 4 -12 1 -19z m368 13 c3 -5 2 -12 -3 -15 -5 -3 -9 1 -9 9 0 17 3
19 12 6z m762 -23 c-3 -7 -5 -2 -5 12 0 14 2 19 5 13 2 -7 2 -19 0 -25z
m-2032 -7 c-6 -5 -25 10 -25 20 0 5 6 4 14 -3 8 -7 12 -15 11 -17z m55 12 c0
-15 -2 -16 -10 -3 -8 12 -10 12 -10 1 0 -8 -3 -12 -6 -8 -8 7 4 27 17 27 5 0
9 -8 9 -17z m274 2 c3 -8 1 -15 -4 -15 -6 0 -10 7 -10 15 0 8 2 15 4 15 2 0 6
-7 10 -15z m53 3 c6 15 53 16 53 1 0 -6 -9 -8 -21 -4 -13 4 -19 3 -16 -3 4 -5
-3 -9 -15 -8 -12 0 -23 8 -25 16 -4 13 -3 13 7 0 9 -11 13 -12 17 -2z m227 -4
c3 -8 2 -12 -4 -9 -6 3 -10 10 -10 16 0 14 7 11 14 -7z m1301 6 c3 -6 -1 -7
-9 -4 -18 7 -21 14 -7 14 6 0 13 -4 16 -10z m1199 -17 c11 -11 50 -10 58 1 4
6 12 5 20 -2 8 -6 24 -10 36 -7 12 2 22 -1 22 -8 0 -8 3 -8 12 1 7 7 18 12 26
12 21 0 11 -54 -12 -58 -12 -3 -16 0 -11 7 5 8 -1 10 -19 5 -17 -4 -26 -2 -26
6 0 9 -4 10 -13 2 -15 -13 -57 -12 -74 0 -6 5 -14 5 -18 -2 -14 -22 -35 -10
-35 20 0 29 17 40 34 23z m361 -3 c8 7 15 8 15 2 0 -5 -7 -15 -15 -22 -12 -10
-18 -10 -30 0 -8 7 -15 17 -15 22 0 6 7 5 15 -2 12 -10 18 -10 30 0z m-2628
-62 c-3 -8 -6 -5 -6 6 -1 11 2 17 5 13 3 -3 4 -12 1 -19z m680 -15 c-3 -10 -5
-4 -5 12 0 17 2 24 5 18 2 -7 2 -21 0 -30z m-1567 17 c0 -5 -4 -10 -10 -10 -5
0 -10 5 -10 10 0 6 5 10 10 10 6 0 10 -4 10 -10z m53 -21 c-13 -13 -33 -4 -32
14 0 9 2 9 6 0 8 -20 26 -15 18 5 -5 14 -4 15 6 5 10 -10 10 -16 2 -24z m920
11 c3 -11 1 -20 -4 -20 -5 0 -9 9 -9 20 0 11 2 20 4 20 2 0 6 -9 9 -20z m354
-12 c-3 -7 -5 -2 -5 12 0 14 2 19 5 13 2 -7 2 -19 0 -25z m-437 -1 c11 -5 9
-6 -4 -4 -11 1 -21 9 -23 17 -3 10 -2 11 4 4 4 -6 15 -14 23 -17z m47 1 c-3
-8 -6 -5 -6 6 -1 11 2 17 5 13 3 -3 4 -12 1 -19z m93 7 c0 -8 -7 -15 -15 -15
-8 0 -15 5 -15 11 0 5 5 7 10 4 6 -3 10 -1 10 4 0 6 2 11 5 11 3 0 5 -7 5 -15z
m173 2 c3 -8 -1 -14 -8 -14 -7 0 -11 6 -8 14 3 7 6 13 8 13 2 0 5 -6 8 -13z
m-3748 -33 c-9 -9 -19 -13 -23 -10 -3 4 0 11 8 16 24 15 33 11 15 -6z m805
-124 l0 -90 -305 0 -305 0 0 90 0 90 305 0 305 0 0 -90z m1997 38 c-3 -7 -5
-2 -5 12 0 14 2 19 5 13 2 -7 2 -19 0 -25z m290 0 c-3 -7 -5 -2 -5 12 0 14 2
19 5 13 2 -7 2 -19 0 -25z m-1308 -25 c14 11 14 10 2 -6 -10 -13 -17 -15 -27
-6 -8 6 -14 14 -14 17 0 3 5 1 12 -6 9 -9 15 -9 27 1z m943 -238 c3 -16 1 -25
-7 -25 -8 0 -10 9 -7 25 2 14 6 25 7 25 1 0 5 -11 7 -25z m154 0 c-1 -29 -16
-35 -16 -7 0 16 8 32 16 32 1 0 1 -11 0 -25z m-339 -22 c-3 -10 -5 -4 -5 12 0
17 2 24 5 18 2 -7 2 -21 0 -30z m51 30 c-10 -2 -18 -9 -18 -15 0 -6 -3 -9 -6
-5 -10 10 6 27 24 26 15 -1 15 -2 0 -6z m45 -24 c-8 -8 -13 -7 -18 2 -6 8 -4
10 5 4 10 -6 12 -4 6 11 -6 15 -5 17 5 7 9 -10 10 -16 2 -24z m280 11 c3 -11
1 -20 -4 -20 -5 0 -9 9 -9 20 0 11 2 20 4 20 2 0 6 -9 9 -20z m107 5 c0 -7 -4
-17 -10 -20 -5 -3 -10 1 -10 9 0 9 -4 16 -10 16 -5 0 -7 -6 -4 -13 5 -15 -32
-21 -41 -6 -11 16 3 26 40 27 24 1 35 -3 35 -13z m467 -7 c-3 -8 -6 -5 -6 6
-1 11 2 17 5 13 3 -3 4 -12 1 -19z m368 13 c3 -5 2 -12 -3 -15 -5 -3 -9 1 -9
9 0 17 3 19 12 6z m762 -23 c-3 -7 -5 -2 -5 12 0 14 2 19 5 13 2 -7 2 -19 0
-25z m-4224 5 c4 9 8 9 15 -2 8 -11 11 -10 15 5 4 15 5 14 6 -6 1 -21 3 -22
11 -8 8 13 23 16 75 14 36 -2 68 1 71 5 7 12 74 7 74 -5 0 -6 -5 -18 -10 -26
-9 -13 -10 -13 -10 0 0 10 -3 11 -8 4 -10 -16 -124 -17 -134 -1 -6 9 -8 9 -8
0 0 -8 -24 -12 -75 -12 -74 0 -75 1 -75 26 0 24 1 25 24 9 18 -12 26 -12 29
-3z m1385 -11 c-8 -9 -14 -9 -24 -1 -18 15 -18 14 10 14 18 0 22 -3 14 -13z
m902 8 c0 -5 -5 -10 -11 -10 -5 0 -7 5 -4 10 3 6 8 10 11 10 2 0 4 -4 4 -10z
m3014 -7 c10 -11 50 -10 58 1 4 6 12 6 20 0 7 -6 34 -10 61 -8 44 2 47 0 47
-22 0 -27 -28 -44 -40 -24 -4 7 -12 10 -18 6 -6 -3 -13 -2 -17 4 -4 6 -11 7
-17 4 -16 -10 -69 -11 -75 -1 -2 4 -13 2 -24 -3 -15 -9 -21 -7 -25 5 -11 29
11 57 30 38z m334 -5 c8 -8 15 -8 27 2 24 20 28 6 5 -15 -20 -18 -21 -18 -43
3 -12 12 -17 22 -11 22 5 0 15 -5 22 -12z m-2515 -55 c-7 -3 -13 -9 -13 -14 0
-6 5 -7 12 -3 7 5 8 3 3 -5 -5 -9 -10 -10 -18 -2 -7 7 -6 15 3 26 7 8 16 13
19 9 3 -4 0 -9 -6 -11z m-917 -4 c3 -6 1 -16 -5 -22 -9 -9 -11 -8 -6 6 4 10 2
17 -4 17 -6 0 -11 -5 -11 -12 0 -6 -3 -9 -6 -5 -7 7 4 27 16 27 5 0 12 -5 16
-11z m621 5 c-3 -3 -12 -4 -19 -1 -8 3 -5 6 6 6 11 1 17 -2 13 -5z m351 -19
c-3 -3 -9 2 -12 12 -6 14 -5 15 5 6 7 -7 10 -15 7 -18z m35 5 c7 -26 1 -26
-13 0 -6 11 -7 20 -2 20 6 0 12 -9 15 -20z m55 -5 c-3 -3 -9 2 -12 12 -6 14
-5 15 5 6 7 -7 10 -15 7 -18z m182 19 c0 -8 -19 -13 -24 -6 -3 5 1 9 9 9 8 0
15 -2 15 -3z"/>
<path d="M580 2590 c0 -5 7 -10 15 -10 8 0 15 5 15 10 0 6 -7 10 -15 10 -8 0
-15 -4 -15 -10z"/>
<path d="M650 2580 c0 -5 5 -10 10 -10 6 0 10 5 10 10 0 6 -4 10 -10 10 -5 0
-10 -4 -10 -10z"/>
<path d="M860 2580 c0 -5 5 -10 11 -10 5 0 7 5 4 10 -3 6 -8 10 -11 10 -2 0
-4 -4 -4 -10z"/>
<path d="M1074 2585 c-7 -18 3 -35 21 -35 15 0 24 19 18 38 -6 17 -32 15 -39
-3z"/>
<path d="M357 2159 c7 -7 15 -10 18 -7 3 3 -2 9 -12 12 -14 6 -15 5 -6 -5z"/>
<path d="M376 1581 c-4 -5 3 -7 14 -4 23 6 26 13 6 13 -8 0 -17 -4 -20 -9z"/>
<path d="M742 1400 c0 -14 2 -19 5 -12 2 6 2 18 0 25 -3 6 -5 1 -5 -13z"/>
<path d="M342 1310 c0 -14 2 -19 5 -12 2 6 2 18 0 25 -3 6 -5 1 -5 -13z"/>
<path d="M758 1193 c7 -3 16 -2 19 1 4 3 -2 6 -13 5 -11 0 -14 -3 -6 -6z"/>
<path d="M742 1150 c0 -14 2 -19 5 -12 2 6 2 18 0 25 -3 6 -5 1 -5 -13z"/>
<path d="M1008 943 c7 -3 16 -2 19 1 4 3 -2 6 -13 5 -11 0 -14 -3 -6 -6z"/>
<path d="M355 820 c-8 -13 5 -13 25 0 13 8 13 10 -2 10 -9 0 -20 -4 -23 -10z"/>
<path d="M3320 180 c0 -5 5 -10 10 -10 6 0 10 5 10 10 0 6 -4 10 -10 10 -5 0
-10 -4 -10 -10z"/>
<path d="M970 165 c0 -8 5 -15 10 -15 6 0 10 7 10 15 0 8 -4 15 -10 15 -5 0
-10 -7 -10 -15z"/>
</g>
</svg>
